# xmcd
#
# Track frame offsets:
#	150
#	21675
#	50305
#	78354
#	100942
#	125340
#	149375
#	181015
#	202872
#	226360
#	250450
#
# Disc length: 3690 seconds
#
# Revision: 1
# Processed by: cddbd v1.5PL3 Copyright (c) Steve Scherf et al.
# Submitted via: CDex 1.50Beta5
#
DISCID=900e680b
DTITLE=Red Snapper - Making Bones
DYEAR=1998
DGENRE=Dance
TTITLE0=The Sleepless
TTITLE1=Crease
TTITLE2=Image of You
TTITLE3=Bogeyman
TTITLE4=The Tunnel
TTITLE5=Like a Moving Truck
TTITLE6=Spitalfields
TTITLE7=Seeing Red
TTITLE8=Suckerpunch
TTITLE9=4 Dead Monks
TTITLE10=Quicktemper
EXTD=
EXTT0=
EXTT1=
EXTT2=
EXTT3=
EXTT4=
EXTT5=
EXTT6=
EXTT7=
EXTT8=
EXTT9=
EXTT10=
PLAYORDER=
